# xmcd CD database file
# Copyright (C) 1993-1998 Ti Kan
# 
# Track frame offsets:
#     150
#     16875
#     34910
#     52202
#     56282
#     77282
#     95867
#     100162
#     120097
#     123872
#     140675
#     159125
#     182402
#     187335
#     205570
#     225827
#     246240
# 
# Disc length: 3564 seconds
# 
# Revision: 1
# Processed by: cddbd v1.4b41PL1 Copyright (c) Steve Scherf et al.
# Submitted via: DiscPlay 4.0.4
# 
DISCID=d00dea11
DTITLE=Sweet Sable - Old Times' Sake
DYEAR=1900
DGENRE=
TTITLE0=Tonight
TTITLE1=Love Thang
TTITLE2=We Can Do That
TTITLE3=Sweet, Sweet, Sable Connection
TTITLE4=Old Times' Sake
TTITLE5=No More
TTITLE6=Bah Da Do Dah!
TTITLE7=Every Inch of U
TTITLE8=Pudgie the Phat Bastard
TTITLE9=No Words
TTITLE10=Circles
TTITLE11=Love Come Down
TTITLE12=Comments from the Peanut Gallery
TTITLE13=Let Me Get to Know You
TTITLE14=Old Times' Sake Doodie Down Mix with Blunt (no rap)
TTITLE15=Old Times' Sake Philly Retro Funk Vibe Mix (no blunt)
TTITLE16=Old Times' Sake Blunted Bass Mix
EXTD=
EXTT0=
EXTT1=
EXTT2=
EXTT3=
EXTT4=
EXTT5=
EXTT6=
EXTT7=
EXTT8=
EXTT9=
EXTT10=
EXTT11=
EXTT12=
EXTT13=
EXTT14=
EXTT15=
EXTT16=
PLAYORDER=
